<svg width="50" height="120" viewBox="0 0 50 120" fill="none" xmlns="http://www.w3.org/2000/svg">
    <g>
        <animateTransform 
            attributeName="transform"
            type="translate"
            from="0 30"
            to="0 -20"
            dur="1.5s"
            repeatCount="indefinite"
        />
        <path d="M-2.05218e-06 61.5258C-3.18556e-06 48.5614 11.1929 38.0516 25 38.0516C38.8071 38.0516 50 48.5614 50 61.5258C50 74.4903 38.8071 85 25 85C11.1929 85 -9.18791e-07 74.4903 -2.05218e-06 61.5258Z" fill="#7EE684"/>
        <path d="M26.7678 1.23223C25.7915 0.255923 24.2085 0.255923 23.2322 1.23223L7.32233 17.1421C6.34602 18.1184 6.34602 19.7014 7.32233 20.6777C8.29864 21.654 9.88155 21.654 10.8579 20.6777L25 6.53553L39.1421 20.6777C40.1184 21.654 41.7014 21.654 42.6777 20.6777C43.654 19.7014 43.654 18.1184 42.6777 17.1421L26.7678 1.23223ZM27.5 63L27.5 3L22.5 3L22.5 63L27.5 63Z" fill="#7EE684"/>
    </g>
</svg>

