<svg width="50" height="95" viewBox="0 0 50 95" fill="none" xmlns="http://www.w3.org/2000/svg">
<path d="M50 23.4742C50 36.4386 38.8071 46.9484 25 46.9484C11.1929 46.9484 0 36.4386 0 23.4742C0 10.5097 11.1929 0 25 0C38.8071 0 50 10.5097 50 23.4742Z" fill="#7EE684"/>
<path d="M23.2322 93.7678C24.2085 94.7441 25.7915 94.7441 26.7678 93.7678L42.6777 77.8579C43.654 76.8816 43.654 75.2986 42.6777 74.3223C41.7014 73.346 40.1184 73.346 39.1421 74.3223L25 88.4645L10.8579 74.3223C9.88155 73.346 8.29864 73.346 7.32233 74.3223C6.34602 75.2986 6.34602 76.8816 7.32233 77.8579L23.2322 93.7678ZM22.5 22L22.5 92L27.5 92L27.5 22L22.5 22Z" fill="#7EE684"/>
</svg>
