<svg width="50" height="85" viewBox="0 0 50 85" fill="none" xmlns="http://www.w3.org/2000/svg">
<path d="M50 23.4742C50 36.4386 38.8071 46.9484 25 46.9484C11.1929 46.9484 -6.37113e-06 36.4386 -4.10436e-06 23.4742C-1.83758e-06 10.5097 11.1929 1.95703e-06 25 4.37114e-06C38.8071 6.78525e-06 50 10.5098 50 23.4742Z" fill="#7EE684"/>
<path d="M23.2322 83.7678C24.2085 84.7441 25.7914 84.7441 26.7678 83.7678L42.6777 67.8579C43.654 66.8816 43.654 65.2986 42.6777 64.3223C41.7013 63.346 40.1184 63.346 39.1421 64.3223L25 78.4645L10.8579 64.3223C9.88154 63.346 8.29863 63.346 7.32232 64.3223C6.34601 65.2986 6.34601 66.8815 7.32232 67.8579L23.2322 83.7678ZM22.5 22L22.5 82L27.5 82L27.5 22L22.5 22Z" fill="#7EE684"/>
</svg>
